# xmcd
#
# Track frame offsets:
#	150
#	16318
#	31565
#	44083
#	62719
#	79408
#	92933
#	111268
#	125990
#	141556
#	159062
#	183692
#	199309
#	214205
#	228702
#	246986
#	265769
#	282382
#
# Disc length: 4019 seconds
#
# Revision: 2
# Processed by: cddbd v1.5.2PL0 Copyright (c) Steve Scherf et al.
# Submitted via: audiograbber 1.83.01
#
DISCID=1a0fb112
DTITLE=Various Artist - Promo Only Country Radio 2011 - 11
DYEAR=2011
DGENRE=Country
TTITLE0=Kip Moore - Somethin' 'bout A Truck
TTITLE1=Jason Aldean - Tattoos on this Town
TTITLE2=Chris Young - You
TTITLE3=The Lost Trailors - Underdog
TTITLE4=Luke Bryan - I Don't Want this Night to End
TTITLE5=Sunny Sweeney - Drink Myself Single
TTITLE6=Brent Anderson - Amy's Song
TTITLE7=The JaneDear Girls - Merry Go Round
TTITLE8=Kevin Fowler - That Girl
TTITLE9=Chris Cagle - Got My Country on
TTITLE10=Vince Gill - Threaten Me with Heaven
TTITLE11=Ashley Gearing - Me, My Heart and I
TTITLE12=Josh Thompson - Change
TTITLE13=Blake Wise - Can't Live Without
TTITLE14=Driftwood Fire - Let it All Go
TTITLE15=Brian Milson - The Man I'm Not
TTITLE16=Aaron Russell - Smoke and Mirrors
TTITLE17=Kenny Chesney ft Grace Potter - You and Tequila (Live Version)
EXTD=
EXTT0=
EXTT1=
EXTT2=
EXTT3=
EXTT4=
EXTT5=
EXTT6=
EXTT7=
EXTT8=
EXTT9=
EXTT10=
EXTT11=
EXTT12=
EXTT13=
EXTT14=
EXTT15=
EXTT16=
EXTT17=
PLAYORDER=
